<svg xmlns="http://www.w3.org/2000/svg" viewBox="0 0 660 323.6"><defs><style>.cls-1{fill:#f5f5f5;}.cls-2{fill:#263238;}.cls-3{fill:#ebebeb;}.cls-4{fill:#b78876;}.cls-5{fill:#aa6550;}.cls-6{fill:#455a64;}.cls-7{fill:#e8505b;}.cls-8{opacity:0.6;}.cls-9{fill:#fff;}.cls-10{fill:#e0e0e0;}.cls-11{opacity:0.3;}</style></defs><g id="Background_Complete" data-name="Background Complete"><path class="cls-1" d="M686.09,166.11l2.29,3.94c-.35-2.42-.72-4.84-1.07-7.27C687,163.91,686.54,165,686.09,166.11Z" transform="translate(-45 -147.45)"/><path class="cls-1" d="M685.48,184.8c.82,1.67,1.68,3.31,2.62,4.93h.55Z" transform="translate(-45 -147.45)"/><path class="cls-1" d="M655.13,149.27a5.46,5.46,0,0,1,6.83,1.67l2.8,4a5.21,5.21,0,0,1,2.38-4.54,5.39,5.39,0,0,1,3.21-3H653.53C654.08,148.05,654.62,148.65,655.13,149.27Z" transform="translate(-45 -147.45)"/><path class="cls-1" d="M676.25,149.48c.36.58.71,1.17,1.07,1.76,2.4-1.36,4.83-2.63,7.3-3.79h-10.7A4.92,4.92,0,0,1,676.25,149.48Z" transform="translate(-45 -147.45)"/></g><g id="Floor"><path class="cls-2" d="M705,452.28c0,.14-147.76.26-330,.26s-330-.12-330-.26S192.73,452,375,452,705,452.13,705,452.28Z" transform="translate(-45 -147.45)"/></g><g id="Character_1" data-name="Character 1"><polygon class="cls-3" points="88.25 73.68 110.31 61.73 132.14 58.76 152.16 134.96 150.32 158.45 93.84 161.49 96.14 106.82 88.25 73.68"/><path class="cls-4" d="M171.41,166a33.84,33.84,0,0,0-34.25-.7s.66,22.4,1.79,32.07,11,10.16,11,10.16l.4,3.52a12.29,12.29,0,0,0,13.47,10.82h0a12.28,12.28,0,0,0,11-12.75L173,167Z" transform="translate(-45 -147.45)"/><path class="cls-5" d="M149.9,207.41a22.68,22.68,0,0,0,12.24-4.91s-2.25,7.28-12,7.42Z" transform="translate(-45 -147.45)"/><path class="cls-4" d="M172.82,177.13c.16-.09,6.44-2.67,6.93,4s-6.28,5.76-6.31,5.57S172.82,177.13,172.82,177.13Z" transform="translate(-45 -147.45)"/><path class="cls-5" d="M175.29,184s.12.08.32.15a1.18,1.18,0,0,0,.86,0,2.86,2.86,0,0,0,1.14-2.67,3.72,3.72,0,0,0-.44-1.63,1.36,1.36,0,0,0-.94-.83.61.61,0,0,0-.66.37c-.07.19,0,.32,0,.34s-.16-.1-.12-.38a.73.73,0,0,1,.23-.44.88.88,0,0,1,.63-.21,1.62,1.62,0,0,1,1.28.94,3.93,3.93,0,0,1,.54,1.82,3,3,0,0,1-1.48,3,1.23,1.23,0,0,1-1.07-.1C175.31,184.16,175.26,184,175.29,184Z" transform="translate(-45 -147.45)"/><path class="cls-2" d="M141.75,181.21a1.39,1.39,0,0,0,1.48,1.25,1.33,1.33,0,0,0,1.29-1.39,1.39,1.39,0,0,0-1.48-1.26A1.34,1.34,0,0,0,141.75,181.21Z" transform="translate(-45 -147.45)"/><path class="cls-2" d="M140.42,178.75c.19.16,1.16-.73,2.65-.88s2.65.48,2.79.28-.13-.4-.65-.69A3.76,3.76,0,0,0,143,177a3.67,3.67,0,0,0-2.08.92C140.45,178.33,140.33,178.67,140.42,178.75Z" transform="translate(-45 -147.45)"/><path class="cls-2" d="M156.59,180.3a1.38,1.38,0,0,0,1.47,1.25,1.32,1.32,0,0,0,1.3-1.39,1.39,1.39,0,0,0-1.48-1.26A1.32,1.32,0,0,0,156.59,180.3Z" transform="translate(-45 -147.45)"/><path class="cls-2" d="M155.07,177.49c.19.16,1.16-.73,2.65-.88s2.65.48,2.8.28-.14-.4-.65-.69a3.81,3.81,0,0,0-2.27-.45,3.77,3.77,0,0,0-2.08.92C155.1,177.07,155,177.42,155.07,177.49Z" transform="translate(-45 -147.45)"/><path class="cls-2" d="M150.83,189.09a9.64,9.64,0,0,0-2.46-.19c-.38,0-.75,0-.84-.29a2,2,0,0,1,.13-1.15c.26-1,.54-2,.82-3,1.13-4.28,1.9-7.79,1.73-7.83s-1.23,3.39-2.35,7.67c-.27,1.06-.53,2.06-.77,3a2.16,2.16,0,0,0,0,1.51,1,1,0,0,0,.68.49,2.42,2.42,0,0,0,.65,0A10.26,10.26,0,0,0,150.83,189.09Z" transform="translate(-45 -147.45)"/><path class="cls-2" d="M154.08,171.7c.19.39,1.65,0,3.42.07s3.23.35,3.42,0c.09-.18-.2-.53-.81-.87a5.63,5.63,0,0,0-2.6-.61,5.53,5.53,0,0,0-2.61.59C154.28,171.16,154,171.51,154.08,171.7Z" transform="translate(-45 -147.45)"/><path class="cls-2" d="M140.52,174.38c.29.31,1.28-.15,2.51-.29s2.3,0,2.5-.39c.09-.18-.11-.51-.6-.78a3.66,3.66,0,0,0-4,.55C140.49,173.87,140.38,174.23,140.52,174.38Z" transform="translate(-45 -147.45)"/><path class="cls-2" d="M131.8,159.7a3.58,3.58,0,0,1,1-3.33,2.56,2.56,0,0,1,3.31-.1,3,3,0,0,1,2.16-3.85c1.57-.27,3,.79,4.61,1a7.25,7.25,0,0,0,4.47-1c1.37-.73,2.62-1.67,4-2.35A12.44,12.44,0,0,1,168,155.73a5.52,5.52,0,0,1,6.06,1.59,9,9,0,0,1,2.05,6.21,20.44,20.44,0,0,1-.65,4.46c0,.12,0,.24.05.37.46,5.33.51,11.65-1.76,11.92-3.95.47-3.79-7.08-3.79-7.08-5-1.37-4-8.84-5.34-9.81s-4.14-3.28-13.76,3c-3.74,2.43-9,2.92-11.93,2.57l-.26,0h-.06l-.09,0a9.2,9.2,0,0,1-2.72-.83,5.2,5.2,0,0,1-2.4-2.16,2.84,2.84,0,0,1,.24-3.09A6.25,6.25,0,0,1,131.8,159.7Z" transform="translate(-45 -147.45)"/><path class="cls-5" d="M150.05,193.79a6.88,6.88,0,0,0,1,1.6,2.24,2.24,0,0,0,1.69.76,2,2,0,0,0,1.61-1.1,3.25,3.25,0,0,0,.27-2c-.09-.61-.45-1.31-1.06-1.32a1.58,1.58,0,0,0-.72.24l-3.06,1.63" transform="translate(-45 -147.45)"/><path class="cls-2" d="M151.6,196.29a4.54,4.54,0,0,0,1.68-.39,2.46,2.46,0,0,0,1.17-1.31,2.58,2.58,0,0,0-.18-2.09,2.18,2.18,0,0,0-.33-.45c-.14-.12-.12-.11-.25-.08a4.81,4.81,0,0,0-.49.26l-.5.26-1.75.91a6.36,6.36,0,0,1-1.69.71,5.69,5.69,0,0,1,1.49-1.06c.48-.3,1.05-.64,1.69-1l.49-.28a4.05,4.05,0,0,1,.56-.3.73.73,0,0,1,.47,0,.87.87,0,0,1,.39.24,2.89,2.89,0,0,1,.42.57,3,3,0,0,1,.17,2.56,2.7,2.7,0,0,1-1.48,1.48,2.56,2.56,0,0,1-1.38.2C151.75,196.41,151.59,196.32,151.6,196.29Z" transform="translate(-45 -147.45)"/><path class="cls-6" d="M164.8,162.45a6.63,6.63,0,0,0-.12-1.17,4.58,4.58,0,0,0-1.8-2.56,6.17,6.17,0,0,0-4.51-1,19,19,0,0,0-5.53,1.86c-1,.43-1.89.84-2.84,1.16a15.33,15.33,0,0,1-2.79.64,15.58,15.58,0,0,1-4.84-.13,14.58,14.58,0,0,1-3.11-1c-.36-.15-.62-.29-.8-.38l-.27-.16s.39.17,1.11.44a16.64,16.64,0,0,0,3.11.85,15.35,15.35,0,0,0,7.5-.58c.93-.31,1.86-.72,2.82-1.15a18.59,18.59,0,0,1,5.61-1.86,6.31,6.31,0,0,1,4.66,1.08,4.57,4.57,0,0,1,1.79,2.7A2.74,2.74,0,0,1,164.8,162.45Z" transform="translate(-45 -147.45)"/><path class="cls-6" d="M174,178s-.06-.06-.15-.19-.21-.33-.36-.59a11.83,11.83,0,0,1-1-2.32,13.35,13.35,0,0,1-.65-3.72,34.4,34.4,0,0,1,.39-4.58,8.89,8.89,0,0,0-.45-4.45,4.54,4.54,0,0,0-1.11-1.59,3.46,3.46,0,0,0-1.48-.77,3.25,3.25,0,0,0-2.39.31,5.74,5.74,0,0,0-.69.6,2,2,0,0,1,.63-.69,3.24,3.24,0,0,1,2.49-.42,3.64,3.64,0,0,1,1.6.79,4.74,4.74,0,0,1,1.19,1.66,9,9,0,0,1,.5,4.58,35.18,35.18,0,0,0-.41,4.56,13.65,13.65,0,0,0,.57,3.66,14.65,14.65,0,0,0,.93,2.33C173.89,177.72,174.06,178,174,178Z" transform="translate(-45 -147.45)"/><path class="cls-6" d="M165.65,161.57a1.47,1.47,0,0,1,0-.39c0-.28,0-.65-.08-1.11a12.82,12.82,0,0,0-.86-4,7.28,7.28,0,0,0-1.55-2.31,5,5,0,0,0-2.78-1.44,6.65,6.65,0,0,0-3.45.5,16.19,16.19,0,0,0-3.3,1.94,27.38,27.38,0,0,1-3.25,2.12,10.54,10.54,0,0,1-3.46,1.09,11.61,11.61,0,0,1-3.29-.06,13,13,0,0,1-2.74-.81,10.64,10.64,0,0,1-3.39-2.33,6.11,6.11,0,0,1-.73-.85,1.74,1.74,0,0,1-.22-.32,1.94,1.94,0,0,1,.26.28,8.46,8.46,0,0,0,.77.81,11.16,11.16,0,0,0,3.39,2.23,12.62,12.62,0,0,0,2.7.75,11.08,11.08,0,0,0,3.21,0,10.42,10.42,0,0,0,3.37-1.07,29.22,29.22,0,0,0,3.22-2.12,16.09,16.09,0,0,1,3.36-2,6.82,6.82,0,0,1,3.59-.5,5.24,5.24,0,0,1,2.9,1.53,7.25,7.25,0,0,1,1.57,2.4,12.49,12.49,0,0,1,.8,4c0,.49,0,.87,0,1.12A2.87,2.87,0,0,1,165.65,161.57Z" transform="translate(-45 -147.45)"/><path class="cls-7" d="M106.37,417.41l-3.13,28.1L94.34,467a2.9,2.9,0,0,0,1.76,3.85h0a2.86,2.86,0,0,0,2.62-.4c4.83-3.52,22.53-16.57,22.65-18.64.13-2.4,5.28-29.43,5.28-29.43Z" transform="translate(-45 -147.45)"/><g class="cls-8"><path class="cls-9" d="M96.1,470.87l25.52-20.93-.16,1.18a4.37,4.37,0,0,1-1.4,2.67c-2.06,1.85-7.87,6.83-21.25,16.7a2.89,2.89,0,0,1-2.71.38Z" transform="translate(-45 -147.45)"/></g><g class="cls-8"><path class="cls-9" d="M117.09,440.12a1.75,1.75,0,0,0-.78,2.21,1.68,1.68,0,0,0,2.18.79,1.85,1.85,0,0,0,.81-2.34,1.73,1.73,0,0,0-2.35-.57" transform="translate(-45 -147.45)"/></g><path class="cls-2" d="M104.16,459.49c-.17.06-.61-1.49-2.17-2.51s-3.13-.87-3.14-1.05.37-.24,1-.25a4.61,4.61,0,0,1,2.45.79,4.45,4.45,0,0,1,1.65,2C104.24,459.06,104.23,459.48,104.16,459.49Z" transform="translate(-45 -147.45)"/><path class="cls-2" d="M101.65,463c-.15.1-.92-.93-2.32-1.54a23.9,23.9,0,0,0-2.68-.72c-.07-.16,1.36-.57,2.94.15S101.81,462.92,101.65,463Z" transform="translate(-45 -147.45)"/><path class="cls-2" d="M108.52,455.19c-.15.11-1.34-1.48-3.42-2.62s-4-1.34-4-1.53,2.1-.27,4.32,1S108.67,455.13,108.52,455.19Z" transform="translate(-45 -147.45)"/><path class="cls-2" d="M110.19,446.72c-.1.16-1.56-.69-3.56-1s-3.67-.07-3.71-.26a7.22,7.22,0,0,1,7.27,1.3Z" transform="translate(-45 -147.45)"/><path class="cls-2" d="M111.32,438.5c-.11.15-1.54-1-3.68-1.19a13.82,13.82,0,0,0-3.84.44c0-.07.31-.38,1-.67a6.22,6.22,0,0,1,2.89-.38,6.12,6.12,0,0,1,2.76.95C111.08,438.07,111.37,438.44,111.32,438.5Z" transform="translate(-45 -147.45)"/><path class="cls-2" d="M107.9,435.76a2.38,2.38,0,0,1,.1-1.07,7.59,7.59,0,0,1,1.22-2.66,3.27,3.27,0,0,1,1.61-1.37,1.15,1.15,0,0,1,1.27.43,1.9,1.9,0,0,1,.27,1.32,4.1,4.1,0,0,1-4.06,3.28A4.73,4.73,0,0,1,104,432.6a1.62,1.62,0,0,1,.1-1.37,1.14,1.14,0,0,1,1.27-.43,4,4,0,0,1,1.71,1.2,8.38,8.38,0,0,1,1.62,2.44,2.39,2.39,0,0,1,.3,1,13.1,13.1,0,0,0-2.23-3.16,3.7,3.7,0,0,0-1.52-1,.61.61,0,0,0-.69.23,1.13,1.13,0,0,0,0,.91,4.27,4.27,0,0,0,3.75,2.63,3.56,3.56,0,0,0,3.49-2.73,1.34,1.34,0,0,0-.15-.93.62.62,0,0,0-.69-.25,2.94,2.94,0,0,0-1.39,1.13A10.83,10.83,0,0,0,107.9,435.76Z" transform="translate(-45 -147.45)"/><path class="cls-7" d="M235.32,418.45l-.9,21.57s21.62,8.17,21.84,12.17l-41.88-.25,0-33.67Z" transform="translate(-45 -147.45)"/><path class="cls-10" d="M221.48,438.13a1.73,1.73,0,0,0-1.2,1.95,1.66,1.66,0,0,0,1.92,1.2,1.81,1.81,0,0,0,1.26-2.07,1.72,1.72,0,0,0-2.14-1" transform="translate(-45 -147.45)"/><g class="cls-8"><path class="cls-9" d="M214.38,451.94l.13-3.39,40.11,1.5s1.86.83,1.64,2.14Z" transform="translate(-45 -147.45)"/></g><path class="cls-2" d="M235.1,439.81c0,.21-1,.3-2,.95s-1.55,1.51-1.74,1.42.12-1.26,1.36-2S235.14,439.63,235.1,439.81Z" transform="translate(-45 -147.45)"/><path class="cls-2" d="M239.48,441.66c.05.2-.84.54-1.54,1.4s-.91,1.77-1.11,1.76-.33-1.16.56-2.22S239.48,441.46,239.48,441.66Z" transform="translate(-45 -147.45)"/><path class="cls-2" d="M242,446.93c-.19,0-.47-1,.06-2.1s1.49-1.55,1.58-1.38-.51.76-.93,1.69S242.15,446.91,242,446.93Z" transform="translate(-45 -147.45)"/><path class="cls-2" d="M234.76,434.88c-.09.18-1-.11-2.18,0s-2.06.43-2.17.25.77-.9,2.13-1S234.86,434.72,234.76,434.88Z" transform="translate(-45 -147.45)"/><path class="cls-2" d="M234.86,430.52a3.85,3.85,0,0,1-2.1,0,9.7,9.7,0,0,1-2.19-.69,9.47,9.47,0,0,1-1.2-.65,2.57,2.57,0,0,1-.63-.49.89.89,0,0,1-.08-1.09,1.09,1.09,0,0,1,.89-.46,2.64,2.64,0,0,1,.79.11,7.55,7.55,0,0,1,3.23,1.74c1,.9,1.29,1.67,1.22,1.71s-.56-.58-1.54-1.33a8.36,8.36,0,0,0-1.87-1.06,7.32,7.32,0,0,0-1.2-.38c-.44-.12-.82-.13-.94.07s0,.11,0,.24a2.1,2.1,0,0,0,.46.36,12.64,12.64,0,0,0,1.11.64,11,11,0,0,0,2,.79A14.06,14.06,0,0,1,234.86,430.52Z" transform="translate(-45 -147.45)"/><path class="cls-2" d="M234.59,430.81a3.38,3.38,0,0,1-.54-2,6.78,6.78,0,0,1,.3-2.29,6.91,6.91,0,0,1,.54-1.27,1.74,1.74,0,0,1,1.35-1.05,1,1,0,0,1,.87.59,2.7,2.7,0,0,1,.21.77,4.76,4.76,0,0,1,0,1.41,4.87,4.87,0,0,1-.91,2.16c-.83,1.08-1.68,1.32-1.7,1.25s.65-.49,1.28-1.53a4.92,4.92,0,0,0,.68-2,4.49,4.49,0,0,0,0-1.21c-.06-.45-.22-.81-.39-.76s-.57.33-.74.68a6.4,6.4,0,0,0-.52,1.14,7.3,7.3,0,0,0-.42,2.09C234.49,430,234.71,430.78,234.59,430.81Z" transform="translate(-45 -147.45)"/><path class="cls-2" d="M99.81,428.31l5.71-92.06c1-14.07,3.34-20.49,14.68-26.06l4.85-3.37,50.39-4.65,3.11,33.73-39.37,8.81L128.86,433Z" transform="translate(-45 -147.45)"/><path class="cls-2" d="M178.55,335.9l25.14,10.37,5.45,80.18,32.56-4-2-86.73a22.78,22.78,0,0,0-8-16.8L209,299.46l-33.54,2.71-2.37,34.95Z" transform="translate(-45 -147.45)"/><path class="cls-6" d="M140.25,333.34a83.14,83.14,0,0,1-.7,9.38,86.89,86.89,0,0,1-1.23,9.32,84.74,84.74,0,0,1,.71-9.38A86,86,0,0,1,140.25,333.34Z" transform="translate(-45 -147.45)"/><path class="cls-6" d="M135.38,318.89l-.27.18-.82.48-3.18,1.79-11.73,6.49.1-.15c-.55,10.68-1.3,25.24-2.12,41.28-.86,16.46-1.71,31.35-2.42,42.12-.37,5.36-.68,9.71-.89,12.76-.12,1.48-.22,2.64-.28,3.47l-.09.9a1,1,0,0,1-.05.3,1.19,1.19,0,0,1,0-.31q0-.34,0-.9c0-.83.11-2,.19-3.47.17-3.05.42-7.41.73-12.77.58-10.81,1.38-25.69,2.26-42.13.83-16.05,1.62-30.62,2.27-41.27v-.11l.09-.05c5-2.66,9-4.83,11.81-6.35l3.23-1.7.84-.43Z" transform="translate(-45 -147.45)"/><path class="cls-6" d="M202.52,329.59a67.75,67.75,0,0,1,.94,8.52,70.2,70.2,0,0,1,.42,8.55,72.52,72.52,0,0,1-.94-8.51A72.91,72.91,0,0,1,202.52,329.59Z" transform="translate(-45 -147.45)"/><path class="cls-6" d="M203.69,346.27a26.56,26.56,0,0,1-2-4.8,25.56,25.56,0,0,1-1.56-5,27,27,0,0,1,2,4.8A25.91,25.91,0,0,1,203.69,346.27Z" transform="translate(-45 -147.45)"/><path class="cls-6" d="M201.89,314.32a3.17,3.17,0,0,1,.45.25l1.28.79,4.83,3,17.23,11,.1.06v.12c.26,9.53.56,20.94.89,33.2.42,16.95.77,32.29,1,43.4.08,5.53.15,10,.2,13.15v3.58c0,.39,0,.69,0,.93a1.14,1.14,0,0,1,0,.32,1.34,1.34,0,0,1,0-.32c0-.24,0-.54,0-.93,0-.85-.06-2.05-.1-3.57-.09-3.14-.21-7.63-.37-13.15-.28-11.14-.68-26.47-1.12-43.4-.3-12.25-.57-23.67-.8-33.2l.1.18-17.14-11.17-4.76-3.14-1.25-.84A2.67,2.67,0,0,1,201.89,314.32Z" transform="translate(-45 -147.45)"/><path class="cls-6" d="M175.37,332.17a10.38,10.38,0,0,1,1.72,1.86,6.69,6.69,0,0,1,1.4,2.12c-.11.09-.93-.7-1.81-1.79S175.2,332.26,175.37,332.17Z" transform="translate(-45 -147.45)"/><path class="cls-6" d="M175.37,332.17a50.63,50.63,0,0,1-.69-7.14,47.46,47.46,0,0,1-.18-7.18,51.69,51.69,0,0,1,.7,7.14A48.18,48.18,0,0,1,175.37,332.17Z" transform="translate(-45 -147.45)"/><path class="cls-6" d="M141.22,340.13c0,.14-.26.33-.66.43s-.76.06-.79-.08.26-.33.66-.43S141.19,340,141.22,340.13Z" transform="translate(-45 -147.45)"/><path class="cls-6" d="M147.06,338.7c0,.14-.59.42-1.4.61s-1.49.25-1.52.11.59-.42,1.4-.61S147,338.56,147.06,338.7Z" transform="translate(-45 -147.45)"/><path class="cls-6" d="M152.9,337.28c0,.14-.6.41-1.4.61s-1.49.24-1.52.1.59-.41,1.4-.61S152.86,337.14,152.9,337.28Z" transform="translate(-45 -147.45)"/><path class="cls-6" d="M158.73,335.86c0,.14-.59.41-1.39.61s-1.49.24-1.53.1.6-.41,1.4-.61S158.7,335.72,158.73,335.86Z" transform="translate(-45 -147.45)"/><path class="cls-6" d="M164.57,334.43c0,.14-.59.42-1.4.61s-1.48.25-1.52.11.59-.42,1.4-.61S164.54,334.29,164.57,334.43Z" transform="translate(-45 -147.45)"/><path class="cls-6" d="M170.41,333c0,.14-.59.41-1.4.61s-1.49.24-1.52.1.59-.41,1.4-.61S170.37,332.87,170.41,333Z" transform="translate(-45 -147.45)"/><path class="cls-6" d="M174.78,331.94c0,.14-.26.34-.66.43s-.76.07-.79-.07.26-.33.66-.43S174.75,331.8,174.78,331.94Z" transform="translate(-45 -147.45)"/><path class="cls-6" d="M177.18,332.31c0,.13-.4.16-.8.06s-.69-.3-.66-.44.39-.17.8-.07S177.21,332.17,177.18,332.31Z" transform="translate(-45 -147.45)"/><path class="cls-6" d="M182.72,334c0,.13-.7,0-1.46-.19s-1.34-.55-1.3-.69.7-.05,1.46.19S182.77,333.84,182.72,334Z" transform="translate(-45 -147.45)"/><path class="cls-6" d="M188.16,336c0,.13-.7,0-1.44-.28s-1.31-.62-1.26-.76.69,0,1.44.28S188.21,335.83,188.16,336Z" transform="translate(-45 -147.45)"/><path class="cls-6" d="M193.48,338.27c-.07.13-.7,0-1.43-.36s-1.27-.7-1.21-.83.69,0,1.42.36S193.54,338.14,193.48,338.27Z" transform="translate(-45 -147.45)"/><path class="cls-6" d="M198.65,340.88c-.07.12-.7-.07-1.41-.44s-1.22-.78-1.16-.9.69.06,1.4.44S198.72,340.75,198.65,340.88Z" transform="translate(-45 -147.45)"/><path class="cls-6" d="M202.47,343.06c-.08.12-.42.05-.78-.16s-.59-.48-.51-.61.42-.05.77.16S202.54,342.93,202.47,343.06Z" transform="translate(-45 -147.45)"/><path class="cls-7" d="M173.42,214.91s-6.89,31.94-1.59,45.2,25.83,40.26,25.83,40.26l15.63-.91s-5.64-82.46-7-84.12-31.73-10.42-31.73-10.42Z" transform="translate(-45 -147.45)"/><path class="cls-7" d="M194,317.7s36.35-13.08,39.31-20.48c7.15-17.8-18.7-78.35-26.94-81.88s-13,15.66-11.61,21.22c5.19,21.17,15.46,43.12,15.46,43.12l-24.47,15.83Z" transform="translate(-45 -147.45)"/><path class="cls-7" d="M152.93,237.56c-1.55-6.4-4.17-24.82-4.17-24.82l-18.6,9.72c-3.3,2.47-10.87,11.08-10.87,20.89,0,17.69,2.51,58,5.76,63.47,4,6.7,20.91,17,20.91,17l11.94-18.36L153,301.6c2.93-5.77,9.41-18.89,10.18-23.24C164.2,272.72,154.19,242.77,152.93,237.56Z" transform="translate(-45 -147.45)"/><path class="cls-2" d="M194.4,241.75a4.25,4.25,0,0,1,.31.64c.21.49.47,1.12.81,1.9.7,1.72,1.68,4.1,2.88,7,2.4,6,5.68,14.19,9.31,23.23.9,2.29,1.79,4.51,2.64,6.66l.08.21-.19.11-17.47,10.07-5.16,2.92c-.57.31-1,.57-1.4.76a2.11,2.11,0,0,1-.5.24,3.28,3.28,0,0,1,.46-.31l1.35-.84,5.09-3.06L210,281.08l-.1.31c-.86-2.15-1.75-4.37-2.65-6.65-3.58-9.07-6.81-17.28-9.18-23.29-1.13-2.95-2.05-5.35-2.72-7.08-.3-.8-.53-1.45-.72-1.94A3.92,3.92,0,0,1,194.4,241.75Z" transform="translate(-45 -147.45)"/><path class="cls-2" d="M220.34,287.31a7.4,7.4,0,0,1-1.28-1.42,18.37,18.37,0,0,0-3.23-3.16,8,8,0,0,0-4.14-1.51c-1.15-.05-1.84.21-1.87.12a3.16,3.16,0,0,1,1.87-.49,7.54,7.54,0,0,1,4.44,1.46,14.12,14.12,0,0,1,3.22,3.36A6.34,6.34,0,0,1,220.34,287.31Z" transform="translate(-45 -147.45)"/><path class="cls-2" d="M205.2,215a26.78,26.78,0,0,0-3,1.58,16.74,16.74,0,0,0-5.22,6.06,36.56,36.56,0,0,0-2.76,7.63,24.55,24.55,0,0,1-.94,3.26,3.25,3.25,0,0,1,.1-.91c.1-.58.25-1.41.48-2.44a31.44,31.44,0,0,1,2.66-7.78,15.84,15.84,0,0,1,5.47-6.13,11.13,11.13,0,0,1,2.27-1.07A3,3,0,0,1,205.2,215Z" transform="translate(-45 -147.45)"/><path class="cls-2" d="M144.12,290.92s-.08-.14-.19-.44-.25-.77-.42-1.28c-.37-1.21-.87-2.82-1.48-4.77-1.22-4-2.87-9.6-4.67-15.76s-3.4-11.76-4.53-15.82c-.54-2-1-3.59-1.31-4.8-.14-.53-.25-1-.34-1.32a1.48,1.48,0,0,1-.08-.47,1.65,1.65,0,0,1,.18.44l.43,1.29,1.47,4.76c1.23,4,2.88,9.6,4.68,15.77s3.4,11.76,4.53,15.81c.54,2,1,3.59,1.31,4.81.14.52.24,1,.34,1.31A2.12,2.12,0,0,1,144.12,290.92Z" transform="translate(-45 -147.45)"/><path class="cls-2" d="M144.22,215.11a6.27,6.27,0,0,1,.11.72c.06.53.14,1.21.24,2.07.18,1.87.44,4.46.76,7.64.61,6.5,1.44,15.38,2.35,25.2.18,1.73.36,3.44.53,5.11l-.12-.2,5.66,3.26.28.16-.23.23-3.33,3.34.05-.26c.61,1.3,1.22,2.55,1.88,3.68s1.41,2.13,2.12,3.07c1.43,1.86,2.82,3.39,4,4.64l2.73,2.86.72.77c.16.17.24.27.23.28a1.56,1.56,0,0,1-.28-.23l-.77-.71c-.66-.64-1.63-1.57-2.82-2.79a57.88,57.88,0,0,1-4.08-4.59,36,36,0,0,1-2.19-3.08c-.68-1.15-1.3-2.39-1.93-3.7l-.07-.15.11-.11,3.31-3.37.06.39-5.68-3.24-.11-.07,0-.13c-.17-1.66-.35-3.37-.54-5.11-.93-9.84-1.66-18.76-2.2-25.22-.25-3.18-.45-5.78-.6-7.65-.05-.86-.1-1.55-.13-2.08A3.11,3.11,0,0,1,144.22,215.11Z" transform="translate(-45 -147.45)"/><polygon class="cls-6" points="116.98 154.31 107.85 142.17 86.07 145.42 85.57 146.83 108.58 174.74 128.3 170.93 116.98 154.31"/><polygon class="cls-6" points="116.48 155.72 107.35 143.58 85.57 146.83 108.09 176.15 127.16 172.22 128.3 170.93 116.48 155.72"/><path class="cls-3" d="M143.37,298.18a1.11,1.11,0,1,0-.4-1.51A1.11,1.11,0,0,0,143.37,298.18Z" transform="translate(-45 -147.45)"/><path class="cls-4" d="M186.82,298.48l-8.2,2.25a12.11,12.11,0,0,0-10-3.06l-3,.45-1.71,2.62s-14.63,2.84-14.9,4.74l.07.58,0,.35,12.73-1s-10.72,1.57-11.36,1.69-3,.27-2.79,1.52c.2,1,1.54,1.66,3.44,1.65.77,0,10.18-.58,10.18-.58l-10.24,1.43c-1.14.17-.72,2,0,2.11s14.23,2,14.23,2a8,8,0,0,1-3.8,1.94c-1.82.14-5.24-1.71-5.72-.52s-.25,1.81.17,2a45.47,45.47,0,0,0,6.45,1.92c1.47.17,15.4-3.54,15.4-3.54l14.81-2.65Z" transform="translate(-45 -147.45)"/><path class="cls-4" d="M134.18,299s-2,1.14-.36,3.89a25.34,25.34,0,0,0,5.72,6.63,2.7,2.7,0,0,0,1.3,2.48s-1.56.65-.14,3.22a3.1,3.1,0,0,0,2.52,3.75s-.46,2.44,2.63,3.11a6.94,6.94,0,0,0,5.62-1.67Z" transform="translate(-45 -147.45)"/><path class="cls-4" d="M140.62,309.11c2.16.25,4.5.35,6.52.8.67.14,1.29.06,1.79.53a1.45,1.45,0,0,1,.31,1.84,2,2,0,0,1-1.63.59,30.31,30.31,0,0,1-6.69-.82" transform="translate(-45 -147.45)"/><path class="cls-4" d="M142,312.44c2.16.25,4.5.36,6.52.8.67.14,1.29.06,1.79.53a1.44,1.44,0,0,1,.31,1.84,2,2,0,0,1-1.63.59,30.15,30.15,0,0,1-6.68-.82" transform="translate(-45 -147.45)"/><path class="cls-4" d="M143.67,315.82c2.15.25,4.5.36,6.52.8.66.14,1.29.06,1.79.53a1.45,1.45,0,0,1,.31,1.84,2,2,0,0,1-1.63.59,30.31,30.31,0,0,1-6.69-.82" transform="translate(-45 -147.45)"/><path class="cls-5" d="M141.06,312.1c0-.09,1.56.2,3.47.44s3.47.33,3.47.43a13.2,13.2,0,0,1-3.51-.11A12.91,12.91,0,0,1,141.06,312.1Z" transform="translate(-45 -147.45)"/><path class="cls-5" d="M141.13,315.21c0-.09,1.77.21,4,.51a37.26,37.26,0,0,1,3.94.58,17.93,17.93,0,0,1-4-.26A18.16,18.16,0,0,1,141.13,315.21Z" transform="translate(-45 -147.45)"/><path class="cls-5" d="M143.07,318.92a20.78,20.78,0,0,1,3.67.2,20.48,20.48,0,0,1,3.63.51,20,20,0,0,1-3.66-.19A19.93,19.93,0,0,1,143.07,318.92Z" transform="translate(-45 -147.45)"/><path class="cls-4" d="M138.84,308.94c0-.09,1.94.26,4.34.51s4.35.31,4.35.41a4.92,4.92,0,0,1-1.29.08,30.77,30.77,0,0,1-6.16-.65A4,4,0,0,1,138.84,308.94Z" transform="translate(-45 -147.45)"/><path class="cls-5" d="M158.94,301.66a41.83,41.83,0,0,1,5.14-1,44.92,44.92,0,0,1,5.2-.64,42.83,42.83,0,0,1-5.15,1A40.91,40.91,0,0,1,158.94,301.66Z" transform="translate(-45 -147.45)"/><path class="cls-2" d="M159.75,300.86s-.21-.24-.56-.71l-1.51-2c-1.35-1.82-3.12-4.24-5.17-7l.1,0-5,.74-12,1.75-3.65.51-1,.12a1.54,1.54,0,0,1-.35,0l.35-.07,1-.16,3.64-.57,12-1.81,5-.74h.06l0,0c2,2.81,3.78,5.24,5.11,7.08l1.46,2.06C159.58,300.59,159.75,300.86,159.75,300.86Z" transform="translate(-45 -147.45)"/><g class="cls-11"><path d="M191.38,292c.47-2.42,2.11-3.83,4.38-4.78s4.8-1.83,6.11-3.91c1.66-2.62.73-6,0-9-1.47-5.91-5.15-20.55-4.76-26.63l13,33.69Z" transform="translate(-45 -147.45)"/></g><g class="cls-11"><path d="M186.72,285.28a4.61,4.61,0,0,0,1.12-3.36,16.26,16.26,0,0,0-.67-3.58c-1.14-4.47-1.39-9.1-1.83-13.69-.35-3.72-.8-6.84-.78-6.59l-4.79-2.51a11.16,11.16,0,0,0,2.64-2s-1-3.25-1.19-4.24c0,0-2.17-11-2.76-14.51l.25,15.5-4.11,6.43,6.62,2.34,4.35,24.41Z" transform="translate(-45 -147.45)"/></g><path class="cls-2" d="M185.71,283.73a3.35,3.35,0,0,1-.18-.44c-.1-.3-.28-.73-.44-1.32a33.63,33.63,0,0,1-1.11-5.1c-.35-2.22-.55-4.92-.95-8a43.21,43.21,0,0,0-.91-4.77c-.21-.83-.48-1.66-.76-2.5l-.83-2.63.06.1a5.76,5.76,0,0,0-1.34-.64c-.5-.19-1-.36-1.53-.53-1-.32-2.1-.63-3.19-.93l-.33-.09.18-.29,4.12-6.43,0,.12c0-.84.1-1.75.15-2.66.16-5.8-.33-11.34-.62-16.39a98.37,98.37,0,0,1-.12-13.43,36.93,36.93,0,0,1,1.64-8.91,8.93,8.93,0,0,1,.48-1.34c.15-.37.29-.69.4-1a5,5,0,0,1,.37-.78,7,7,0,0,1-.27.82c-.1.28-.22.6-.36,1a9.81,9.81,0,0,0-.43,1.35,39.51,39.51,0,0,0-1.46,8.87,102.75,102.75,0,0,0,.23,13.38c.31,5,.82,10.59.66,16.44,0,.92-.11,1.83-.16,2.69v.06l0,0c-1.41,2.21-2.79,4.36-4.12,6.42l-.15-.38q1.65.45,3.21,1c.53.17,1,.34,1.55.53a5.73,5.73,0,0,1,1.5.76l0,0,0,.07q.42,1.33.81,2.61c.29.86.55,1.71.75,2.55a39.8,39.8,0,0,1,.88,4.82c.38,3.07.54,5.77.84,8a40.75,40.75,0,0,0,1,5.1c.15.59.3,1,.38,1.33A1.6,1.6,0,0,1,185.71,283.73Z" transform="translate(-45 -147.45)"/><path class="cls-2" d="M177.59,277.34a3.45,3.45,0,0,1,.09,1,14.71,14.71,0,0,1-.23,2.81,17,17,0,0,1-11.8,13.38,14.86,14.86,0,0,1-2.76.58,3.76,3.76,0,0,1-1,0c0-.1,1.47-.2,3.69-1a17.64,17.64,0,0,0,11.55-13.1C177.57,278.81,177.49,277.33,177.59,277.34Z" transform="translate(-45 -147.45)"/></g></svg>