<?xml version="1.0" encoding="utf-8"?>
<!-- Generator: Adobe Illustrator 25.4.1, SVG Export Plug-In . SVG Version: 6.00 Build 0)  -->
<svg version="1.1" xmlns="http://www.w3.org/2000/svg" xmlns:xlink="http://www.w3.org/1999/xlink" x="0px" y="0px"
	 viewBox="0 0 750 500" style="enable-background:new 0 0 750 500;" xml:space="preserve">
<style type="text/css">
	.st0{display:none;}
	.st1{display:inline;fill:#E0E0E0;}
	.st2{fill:#263238;}
	.st3{fill:#EBEBEB;}
	.st4{fill:#B78876;}
	.st5{fill:#AA6550;}
	.st6{fill:#455A64;}
	.st7{fill:#E8505B;}
	.st8{opacity:0.6;}
	.st9{fill:#FFFFFF;}
	.st10{fill:#E0E0E0;}
	.st11{opacity:0.3;}
</style>
<g id="Background_Complete">
</g>
<g id="Background_Simple" class="st0">
	<path class="st1" d="M643.57,151.75c-12.6-23.61-31.4-44.57-55.57-56.07c-24.17-11.5-54-12.48-77.2,0.87
		c-28.23,16.24-41.69,49.15-52.05,80.02c-10.36,30.87-20.88,64.09-46.41,84.31c-32.85,26.01-79.67,22.27-120.86,14.6
		c-41.19-7.67-85.3-17.69-123.64-0.8c-34.55,15.22-57.99,52.71-56.54,90.43c1.45,37.73,28.16,74.65,63.78,87.17l287.95,0.26
		c78.4-0.07,97.61-22.69,149.06-81.85C663.54,311.53,680.49,220.92,643.57,151.75z"/>
	<path class="st1" d="M211.2,68.24c-28.58,18.7-43.21,56.42-34.73,89.5c8.48,33.08,39.45,59.1,73.5,61.75
		c34.05,2.65,68.67-18.27,82.17-49.64s4.87-70.9-20.47-93.79c-25.34-22.9-65.53-27.49-95.38-10.89"/>
</g>
<g id="Floor">
	<g>
		<g>
			<path class="st2" d="M705,452.28c0,0.14-147.76,0.26-329.98,0.26c-182.29,0-330.01-0.12-330.01-0.26
				c0-0.14,147.73-0.26,330.01-0.26C557.24,452.02,705,452.13,705,452.28z"/>
		</g>
	</g>
</g>
<g id="Character_3">
</g>
<g id="Device">
</g>
<g id="Character_2">
</g>
<g id="Character_1">
	<g>
		<g>
			<g>
				<polygon class="st3" points="133.25,221.13 155.31,209.19 177.14,206.21 197.16,282.41 195.32,305.9 138.84,308.94 
					141.14,254.27 				"/>
			</g>
			<g>
				<g>
					<g>
						<g>
							<g>
								<g>
									<g>
										<path class="st4" d="M171.41,166.02c-10.45-6.42-23.55-6.69-34.25-0.7c0,0,0.66,22.4,1.79,32.07
											c1.14,9.67,10.98,10.16,10.98,10.16l0.4,3.52c0.77,6.69,6.77,11.51,13.47,10.82l0,0c6.46-0.67,11.28-6.26,11-12.75
											l-1.84-42.17L171.41,166.02z"/>
									</g>
									<g>
										<g>
											<g>
												<g>
													<path class="st5" d="M149.9,207.41c0,0,6.17-0.14,12.24-4.91c0,0-2.25,7.28-12,7.42L149.9,207.41z"/>
												</g>
											</g>
										</g>
									</g>
								</g>
							</g>
						</g>
						<g>
							<g>
								<g>
									<g>
										<g>
											<path class="st4" d="M172.82,177.13c0.16-0.09,6.44-2.67,6.93,3.97c0.48,6.64-6.28,5.76-6.31,5.57
												C173.41,186.48,172.82,177.13,172.82,177.13z"/>
										</g>
									</g>
								</g>
							</g>
							<g>
								<g>
									<g>
										<g>
											<g>
												<path class="st5" d="M175.29,184c0.03-0.02,0.12,0.07,0.32,0.15c0.2,0.07,0.53,0.11,0.87-0.05
													c0.68-0.31,1.19-1.47,1.14-2.66c-0.03-0.61-0.2-1.17-0.44-1.63c-0.24-0.47-0.58-0.79-0.93-0.82
													c-0.36-0.06-0.59,0.17-0.66,0.37c-0.08,0.19-0.02,0.32-0.06,0.34c-0.02,0.02-0.15-0.1-0.12-0.38
													c0.02-0.13,0.08-0.3,0.23-0.43c0.15-0.14,0.38-0.22,0.63-0.22c0.51,0,1.01,0.44,1.28,0.94c0.3,0.51,0.51,1.14,0.54,1.82
													c0.05,1.34-0.54,2.64-1.48,2.99c-0.46,0.16-0.86,0.04-1.07-0.1C175.31,184.16,175.26,184.02,175.29,184z"/>
											</g>
										</g>
									</g>
								</g>
							</g>
						</g>
						<g>
							<g>
								<g>
									<g>
										<g>
											<g>
												<g>
													<g>
														<g>
															<g>
																<path class="st2" d="M141.75,181.21c0.05,0.73,0.71,1.29,1.48,1.25c0.76-0.04,1.34-0.66,1.29-1.4
																	c-0.05-0.73-0.71-1.29-1.48-1.26C142.28,179.85,141.7,180.48,141.75,181.21z"/>
															</g>
														</g>
													</g>
												</g>
												<g>
													<g>
														<g>
															<g>
																<g>
																	<path class="st2" d="M140.42,178.75c0.19,0.16,1.16-0.72,2.64-0.88c1.48-0.17,2.66,0.48,2.8,0.28
																		c0.07-0.09-0.14-0.4-0.65-0.69c-0.5-0.3-1.34-0.55-2.26-0.45c-0.93,0.1-1.67,0.53-2.08,0.92
																		C140.45,178.33,140.33,178.67,140.42,178.75z"/>
																</g>
															</g>
														</g>
													</g>
												</g>
											</g>
											<g>
												<g>
													<g>
														<g>
															<g>
																<path class="st2" d="M156.59,180.3c0.05,0.73,0.71,1.29,1.48,1.25c0.76-0.04,1.34-0.66,1.29-1.4
																	s-0.71-1.29-1.48-1.26C157.11,178.94,156.53,179.57,156.59,180.3z"/>
															</g>
														</g>
													</g>
												</g>
												<g>
													<g>
														<g>
															<g>
																<g>
																	<path class="st2" d="M155.07,177.49c0.19,0.16,1.16-0.72,2.64-0.87c1.48-0.17,2.66,0.48,2.8,0.28
																		c0.07-0.09-0.14-0.4-0.65-0.69c-0.5-0.3-1.34-0.55-2.26-0.45c-0.93,0.1-1.67,0.53-2.08,0.92
																		C155.1,177.07,154.98,177.42,155.07,177.49z"/>
																</g>
															</g>
														</g>
													</g>
												</g>
											</g>
											<g>
												<g>
													<g>
														<g>
															<g>
																<path class="st2" d="M150.83,189.09c0-0.09-0.94-0.15-2.46-0.18c-0.38,0-0.75-0.04-0.84-0.29
																	c-0.12-0.26,0-0.69,0.14-1.15c0.26-0.96,0.53-1.96,0.82-3.01c1.13-4.28,1.9-7.79,1.73-7.83
																	c-0.17-0.04-1.23,3.39-2.35,7.67c-0.27,1.06-0.53,2.06-0.77,3.02c-0.1,0.45-0.29,0.96-0.04,1.51
																	c0.13,0.27,0.43,0.45,0.68,0.49c0.25,0.05,0.47,0.03,0.65,0.02C149.9,189.26,150.84,189.17,150.83,189.09z"/>
															</g>
														</g>
													</g>
												</g>
											</g>
										</g>
									</g>
								</g>
								<g>
									<g>
										<g>
											<g>
												<path class="st2" d="M154.08,171.7c0.19,0.39,1.65,0.04,3.42,0.07c1.77-0.01,3.23,0.35,3.42-0.03
													c0.08-0.18-0.2-0.54-0.81-0.87c-0.6-0.33-1.54-0.61-2.6-0.62c-1.06,0-2,0.26-2.61,0.59
													C154.28,171.16,153.99,171.51,154.08,171.7z"/>
											</g>
										</g>
									</g>
								</g>
								<g>
									<g>
										<g>
											<g>
												<path class="st2" d="M140.52,174.38c0.3,0.31,1.29-0.15,2.52-0.29c1.23-0.19,2.3-0.01,2.5-0.39
													c0.09-0.18-0.11-0.5-0.6-0.78c-0.48-0.27-1.26-0.45-2.11-0.34c-0.84,0.12-1.55,0.5-1.94,0.89
													C140.49,173.87,140.38,174.23,140.52,174.38z"/>
											</g>
										</g>
									</g>
								</g>
							</g>
						</g>
					</g>
					<g>
						<g>
							<path class="st2" d="M131.8,159.7c-0.23-1.19,0.08-2.52,0.98-3.33c0.9-0.81,2.42-0.92,3.31-0.1
								c-0.62-1.57,0.5-3.57,2.17-3.85c1.57-0.27,3.04,0.79,4.61,1.04c1.53,0.25,3.09-0.27,4.46-1c1.37-0.73,2.63-1.66,4.02-2.35
								c2.91-1.42,6.38-1.65,9.45-0.61c3.07,1.04,5.69,3.32,7.14,6.22c2.05-0.88,4.57-0.06,6.06,1.59c1.49,1.66,2.08,3.98,2.05,6.21
								c-0.02,1.51-0.3,2.99-0.65,4.46c0.01,0.12,0.04,0.25,0.05,0.37c0.46,5.33,0.51,11.65-1.75,11.92
								c-3.95,0.48-3.79-7.08-3.79-7.08c-5.05-1.37-4.01-8.83-5.34-9.81c-1.33-0.98-4.14-3.28-13.76,2.99
								c-3.74,2.43-8.99,2.92-11.93,2.57c-0.09-0.01-0.17-0.01-0.26-0.02c-0.02,0-0.04,0-0.06-0.01c-0.03,0-0.06-0.02-0.09-0.03
								c-0.94-0.14-1.86-0.4-2.72-0.83c-0.98-0.49-1.9-1.19-2.4-2.16c-0.5-0.98-0.48-2.26,0.24-3.09
								C132.74,161.95,132.03,160.89,131.8,159.7z"/>
						</g>
					</g>
				</g>
				<g>
					<path class="st5" d="M150.05,193.79c0.3,0.57,0.6,1.14,1.04,1.6c0.44,0.46,1.06,0.8,1.69,0.76c0.68-0.04,1.29-0.51,1.61-1.11
						c0.32-0.6,0.37-1.32,0.27-1.99c-0.09-0.61-0.45-1.31-1.06-1.32c-0.26,0-0.49,0.12-0.72,0.24c-1.02,0.54-2.04,1.09-3.06,1.63"/>
				</g>
				<g>
					<g>
						<path class="st2" d="M151.6,196.29c0.01-0.1,0.74,0.11,1.68-0.39c0.46-0.24,0.94-0.68,1.16-1.3c0.23-0.62,0.2-1.43-0.18-2.09
							c-0.09-0.17-0.21-0.32-0.33-0.45c-0.14-0.12-0.12-0.12-0.25-0.08c-0.13,0.05-0.33,0.17-0.49,0.25
							c-0.17,0.09-0.34,0.18-0.5,0.27c-0.65,0.35-1.25,0.65-1.75,0.9c-1,0.5-1.65,0.78-1.68,0.71c-0.04-0.07,0.53-0.47,1.49-1.06
							c0.48-0.3,1.05-0.64,1.69-1.01c0.16-0.09,0.33-0.19,0.49-0.29c0.18-0.1,0.31-0.19,0.56-0.3c0.12-0.05,0.3-0.09,0.48-0.04
							c0.18,0.05,0.29,0.15,0.38,0.24c0.16,0.18,0.31,0.36,0.42,0.57c0.47,0.83,0.48,1.81,0.17,2.56c-0.31,0.77-0.94,1.25-1.48,1.48
							c-0.56,0.24-1.06,0.25-1.38,0.2C151.75,196.41,151.59,196.32,151.6,196.29z"/>
					</g>
				</g>
				<g>
					<g>
						<path class="st6" d="M164.8,162.45c-0.04,0,0.06-0.43-0.12-1.17c-0.17-0.73-0.7-1.76-1.8-2.56c-1.07-0.83-2.73-1.21-4.51-0.98
							c-1.79,0.2-3.63,0.99-5.53,1.86c-0.95,0.43-1.9,0.84-2.84,1.16c-0.95,0.31-1.89,0.52-2.79,0.64
							c-1.82,0.25-3.48,0.12-4.83-0.13c-1.36-0.26-2.41-0.64-3.12-0.95c-0.35-0.15-0.62-0.29-0.8-0.38
							c-0.18-0.1-0.27-0.15-0.27-0.16c0.01-0.03,0.39,0.17,1.11,0.44c0.71,0.27,1.77,0.62,3.11,0.86c1.34,0.22,2.98,0.32,4.76,0.06
							c0.89-0.12,1.81-0.34,2.74-0.65c0.93-0.31,1.86-0.72,2.81-1.15c1.9-0.87,3.78-1.67,5.62-1.86c1.82-0.23,3.56,0.2,4.66,1.08
							c1.12,0.85,1.64,1.94,1.79,2.7C164.93,162.03,164.8,162.45,164.8,162.45z"/>
					</g>
				</g>
				<g>
					<g>
						<path class="st6" d="M174.04,178.02c-0.01,0.01-0.06-0.06-0.15-0.19c-0.09-0.13-0.21-0.33-0.37-0.59
							c-0.3-0.52-0.69-1.3-1.02-2.32c-0.33-1.02-0.6-2.29-0.64-3.72c-0.06-1.43,0.22-2.98,0.39-4.59c0.18-1.6,0.1-3.17-0.46-4.45
							c-0.27-0.64-0.65-1.18-1.1-1.59c-0.45-0.4-0.98-0.65-1.49-0.77c-1.02-0.24-1.89,0.01-2.38,0.31c-0.49,0.32-0.66,0.62-0.69,0.6
							c0,0,0.13-0.33,0.63-0.69c0.49-0.35,1.4-0.65,2.49-0.42c0.54,0.11,1.1,0.36,1.6,0.79c0.49,0.43,0.9,1,1.19,1.66
							c0.59,1.33,0.68,2.96,0.5,4.58c-0.17,1.63-0.46,3.15-0.41,4.55c0.02,1.4,0.27,2.65,0.57,3.66c0.31,1.02,0.66,1.8,0.93,2.33
							C173.89,177.72,174.07,178.01,174.04,178.02z"/>
					</g>
				</g>
				<g>
					<g>
						<path class="st6" d="M165.65,161.57c-0.01,0-0.02-0.13-0.04-0.39c-0.02-0.28-0.04-0.65-0.08-1.11
							c-0.09-0.96-0.21-2.38-0.87-3.97c-0.33-0.79-0.83-1.6-1.55-2.31c-0.71-0.7-1.66-1.28-2.78-1.44
							c-1.11-0.18-2.31,0.05-3.45,0.51c-1.15,0.46-2.22,1.17-3.3,1.93c-1.08,0.77-2.13,1.54-3.25,2.13
							c-1.13,0.58-2.31,0.94-3.47,1.08c-1.15,0.15-2.27,0.11-3.28-0.06c-1.02-0.18-1.94-0.47-2.74-0.81
							c-1.61-0.71-2.72-1.63-3.39-2.33c-0.35-0.35-0.58-0.65-0.73-0.85c-0.15-0.21-0.23-0.32-0.22-0.32
							c0.01-0.01,0.1,0.09,0.27,0.28c0.16,0.2,0.41,0.48,0.76,0.81c0.69,0.67,1.81,1.55,3.39,2.22c0.8,0.32,1.7,0.6,2.7,0.76
							c1,0.16,2.09,0.18,3.21,0.03c1.12-0.15,2.27-0.51,3.37-1.07c1.09-0.58,2.13-1.34,3.21-2.11c1.08-0.77,2.18-1.49,3.36-1.96
							c1.17-0.46,2.43-0.7,3.59-0.51c1.17,0.18,2.17,0.8,2.9,1.53c0.74,0.74,1.24,1.58,1.57,2.4c0.65,1.64,0.74,3.08,0.79,4.04
							c0.02,0.49,0.02,0.86,0.02,1.12C165.66,161.44,165.66,161.57,165.65,161.57z"/>
					</g>
				</g>
			</g>
		</g>
		<g>
			<g>
				<path class="st7" d="M106.37,417.41l-3.14,28.1l-8.89,21.51c-0.64,1.55,0.17,3.32,1.76,3.85l0,0c0.89,0.3,1.86,0.15,2.62-0.4
					c4.83-3.52,22.53-16.58,22.65-18.65c0.13-2.4,5.28-29.42,5.28-29.42L106.37,417.41z"/>
			</g>
			<g class="st8">
				<path class="st9" d="M96.1,470.87l25.52-20.94l-0.16,1.19c-0.14,1.03-0.63,1.97-1.4,2.66c-2.06,1.85-7.87,6.84-21.25,16.7
					C98.03,471.06,97.01,471.21,96.1,470.87L96.1,470.87z"/>
			</g>
			<g class="st8">
				<g>
					<path class="st9" d="M117.09,440.12c-0.77,0.39-1.14,1.42-0.78,2.2c0.36,0.78,1.4,1.17,2.18,0.79c0.77-0.38,1.26-1.6,0.82-2.34
						c-0.44-0.74-1.7-1.13-2.36-0.57"/>
				</g>
			</g>
			<g>
				<g>
					<path class="st2" d="M104.16,459.49c-0.17,0.06-0.6-1.5-2.16-2.51c-1.53-1.06-3.13-0.87-3.14-1.05
						c-0.02-0.07,0.37-0.24,1.04-0.25c0.66-0.01,1.6,0.21,2.45,0.78c0.85,0.57,1.41,1.36,1.65,1.97
						C104.24,459.06,104.23,459.48,104.16,459.49z"/>
				</g>
			</g>
			<g>
				<g>
					<path class="st2" d="M101.65,462.98c-0.15,0.1-0.93-0.93-2.32-1.54c-1.38-0.64-2.67-0.54-2.69-0.72
						c-0.06-0.15,1.37-0.57,2.94,0.16C101.17,461.58,101.81,462.92,101.65,462.98z"/>
				</g>
			</g>
			<g>
				<g>
					<path class="st2" d="M108.52,455.19c-0.15,0.12-1.34-1.48-3.42-2.62c-2.07-1.17-4.05-1.34-4.03-1.53
						c-0.03-0.16,2.11-0.26,4.33,0.99C107.63,453.25,108.67,455.13,108.52,455.19z"/>
				</g>
			</g>
			<g>
				<g>
					<path class="st2" d="M110.19,446.72c-0.1,0.16-1.56-0.7-3.56-1.04c-2-0.37-3.67-0.08-3.7-0.26c-0.06-0.15,1.66-0.75,3.81-0.35
						C108.89,445.45,110.29,446.61,110.19,446.72z"/>
				</g>
			</g>
			<g>
				<g>
					<path class="st2" d="M111.32,438.5c-0.11,0.15-1.54-0.99-3.68-1.18c-2.14-0.24-3.76,0.6-3.84,0.43
						c-0.04-0.06,0.32-0.38,1.01-0.66c0.69-0.29,1.74-0.5,2.89-0.39c1.15,0.12,2.14,0.53,2.76,0.95
						C111.08,438.07,111.37,438.44,111.32,438.5z"/>
				</g>
			</g>
			<g>
				<g>
					<path class="st2" d="M107.9,435.76c-0.04,0-0.05-0.39,0.1-1.07c0.15-0.67,0.49-1.64,1.22-2.66c0.37-0.48,0.78-1.11,1.61-1.37
						c0.41-0.13,0.98,0.02,1.27,0.43c0.28,0.41,0.32,0.88,0.27,1.32c-0.27,1.77-2.03,3.29-4.06,3.28c-2.04-0.05-3.7-1.44-4.29-3.09
						c-0.12-0.42-0.18-0.92,0.11-1.37c0.28-0.45,0.87-0.56,1.27-0.44c0.82,0.24,1.28,0.79,1.72,1.21c0.86,0.91,1.35,1.8,1.62,2.43
						c0.27,0.64,0.33,1.02,0.3,1.03c-0.11,0.06-0.52-1.47-2.23-3.15c-0.43-0.39-0.93-0.88-1.52-1.02c-0.29-0.07-0.56,0.01-0.69,0.24
						c-0.14,0.21-0.13,0.57-0.02,0.9c0.5,1.35,2.03,2.62,3.75,2.63c1.71,0.03,3.26-1.3,3.49-2.73c0.05-0.34,0.01-0.7-0.15-0.93
						c-0.15-0.23-0.42-0.32-0.7-0.25c-0.57,0.15-1.02,0.69-1.39,1.13C108.11,434.19,108.02,435.8,107.9,435.76z"/>
				</g>
			</g>
		</g>
		<g>
			<g>
				<g>
					<g>
						<g>
							<path class="st7" d="M235.32,418.45l-0.9,21.57c0,0,21.62,8.16,21.84,12.16l-41.88-0.25l0.03-33.66L235.32,418.45z"/>
						</g>
					</g>
				</g>
				<g>
					<g>
						<g>
							<g>
								<path class="st10" d="M221.48,438.13c-0.81,0.22-1.38,1.12-1.19,1.95c0.18,0.82,1.1,1.4,1.92,1.2
									c0.82-0.2,1.53-1.27,1.25-2.07c-0.27-0.79-1.39-1.42-2.13-1.03"/>
							</g>
						</g>
					</g>
				</g>
				<g>
					<g>
						<g class="st8">
							<path class="st9" d="M214.38,451.94l0.14-3.39l40.11,1.51c0,0,1.86,0.82,1.64,2.13L214.38,451.94z"/>
						</g>
					</g>
				</g>
				<g>
					<g>
						<g>
							<g>
								<path class="st2" d="M235.1,439.81c-0.01,0.2-1.03,0.29-2.04,0.94c-1.03,0.63-1.55,1.51-1.74,1.43
									c-0.19-0.04,0.12-1.26,1.36-2.03C233.91,439.38,235.14,439.63,235.1,439.81z"/>
							</g>
						</g>
					</g>
				</g>
				<g>
					<g>
						<g>
							<g>
								<path class="st2" d="M239.48,441.66c0.05,0.2-0.84,0.54-1.54,1.4c-0.72,0.84-0.91,1.77-1.11,1.76
									c-0.19,0.03-0.33-1.17,0.56-2.22C238.27,441.54,239.48,441.46,239.48,441.66z"/>
							</g>
						</g>
					</g>
				</g>
				<g>
					<g>
						<g>
							<g>
								<path class="st2" d="M241.95,446.93c-0.19,0.04-0.46-0.98,0.07-2.1c0.52-1.12,1.49-1.56,1.58-1.39
									c0.11,0.17-0.51,0.77-0.93,1.69C242.21,446.05,242.15,446.91,241.95,446.93z"/>
							</g>
						</g>
					</g>
				</g>
				<g>
					<g>
						<g>
							<g>
								<path class="st2" d="M234.76,434.88c-0.09,0.19-1.02-0.1-2.18-0.03c-1.16,0.05-2.06,0.43-2.17,0.25
									c-0.12-0.15,0.77-0.9,2.13-0.97C233.91,434.06,234.86,434.72,234.76,434.88z"/>
							</g>
						</g>
					</g>
				</g>
			</g>
			<g>
				<g>
					<g>
						<g>
							<path class="st2" d="M234.86,430.52c0,0.08-0.81,0.21-2.1-0.02c-0.64-0.12-1.4-0.33-2.19-0.69c-0.4-0.18-0.8-0.39-1.2-0.65
								c-0.19-0.13-0.42-0.25-0.63-0.5c-0.23-0.21-0.35-0.76-0.09-1.09c0.22-0.32,0.6-0.46,0.9-0.46c0.31-0.01,0.56,0.06,0.79,0.11
								c0.47,0.12,0.9,0.27,1.3,0.46c0.8,0.37,1.45,0.83,1.93,1.28c0.97,0.91,1.29,1.67,1.22,1.71c-0.09,0.07-0.56-0.58-1.55-1.32
								c-0.49-0.37-1.12-0.76-1.86-1.07c-0.37-0.15-0.78-0.28-1.2-0.38c-0.44-0.12-0.82-0.12-0.94,0.07
								c-0.04,0.08-0.05,0.1,0.04,0.24c0.1,0.12,0.27,0.24,0.46,0.36c0.37,0.24,0.74,0.46,1.1,0.64c0.73,0.37,1.43,0.62,2.02,0.79
								C234.08,430.35,234.87,430.41,234.86,430.52z"/>
						</g>
					</g>
				</g>
			</g>
			<g>
				<g>
					<g>
						<g>
							<path class="st2" d="M234.59,430.81c-0.07,0.03-0.47-0.7-0.54-2.03c-0.03-0.66,0.04-1.45,0.3-2.29
								c0.13-0.42,0.31-0.85,0.54-1.27c0.25-0.41,0.55-0.96,1.34-1.05c0.41-0.01,0.76,0.31,0.87,0.59c0.14,0.28,0.16,0.53,0.21,0.77
								c0.07,0.49,0.06,0.97-0.01,1.41c-0.14,0.89-0.51,1.63-0.91,2.16c-0.83,1.08-1.68,1.32-1.7,1.25
								c-0.07-0.1,0.65-0.49,1.28-1.53c0.31-0.51,0.59-1.19,0.68-1.97c0.04-0.39,0.04-0.8-0.03-1.21c-0.06-0.45-0.23-0.81-0.39-0.76
								c-0.21,0-0.56,0.33-0.74,0.68c-0.22,0.37-0.39,0.76-0.53,1.13c-0.27,0.76-0.39,1.48-0.42,2.09
								C234.49,430.02,234.71,430.78,234.59,430.81z"/>
						</g>
					</g>
				</g>
			</g>
		</g>
		<g>
			<g>
				<path class="st2" d="M99.81,428.31l5.71-92.06c1.03-14.07,3.34-20.49,14.68-26.07l4.84-3.36l50.4-4.65l3.1,33.73l-39.37,8.81
					l-10.31,88.24L99.81,428.31z"/>
			</g>
			<g>
				<path class="st2" d="M178.55,335.9l25.15,10.37l5.45,80.18l32.56-3.99l-1.99-86.73c-0.15-6.48-3.05-12.59-7.97-16.8
					l-22.77-19.47l-33.53,2.71l-2.37,34.95L178.55,335.9z"/>
			</g>
			<g>
				<g>
					<path class="st6" d="M140.25,333.34c0.14,0.01-0.17,4.21-0.71,9.38c-0.53,5.17-1.08,9.34-1.23,9.32
						c-0.14-0.01,0.17-4.21,0.71-9.38C139.56,337.5,140.11,333.33,140.25,333.34z"/>
				</g>
			</g>
			<g>
				<g>
					<path class="st6" d="M135.38,318.89c0,0.01-0.09,0.07-0.27,0.18c-0.21,0.12-0.48,0.28-0.82,0.48
						c-0.76,0.43-1.82,1.03-3.18,1.79c-2.8,1.55-6.8,3.77-11.73,6.5l0.1-0.15c-0.55,10.68-1.3,25.24-2.12,41.28
						c-0.86,16.46-1.71,31.35-2.42,42.13c-0.38,5.36-0.68,9.71-0.89,12.76c-0.12,1.48-0.21,2.64-0.28,3.47
						c-0.04,0.37-0.06,0.67-0.09,0.9c-0.02,0.2-0.04,0.31-0.05,0.31c-0.01,0-0.01-0.11-0.01-0.31c0.01-0.23,0.02-0.53,0.03-0.9
						c0.04-0.83,0.11-1.99,0.18-3.47c0.17-3.05,0.42-7.4,0.73-12.76c0.58-10.81,1.38-25.69,2.26-42.13
						c0.83-16.05,1.62-30.63,2.27-41.27l0.01-0.11l0.09-0.05c4.96-2.67,8.99-4.83,11.81-6.35c1.38-0.73,2.46-1.3,3.22-1.7
						c0.35-0.18,0.63-0.32,0.85-0.43C135.27,318.93,135.38,318.88,135.38,318.89z"/>
				</g>
			</g>
			<g>
				<g>
					<path class="st6" d="M202.52,329.59c0.14-0.01,0.56,3.8,0.94,8.51c0.37,4.71,0.56,8.54,0.42,8.56
						c-0.14,0.01-0.56-3.8-0.94-8.51C202.57,333.43,202.38,329.6,202.52,329.59z"/>
				</g>
			</g>
			<g>
				<g>
					<path class="st6" d="M203.69,346.27c-0.13,0.05-1.05-2.1-2.05-4.8c-0.99-2.7-1.69-4.93-1.56-4.98c0.13-0.05,1.05,2.1,2.05,4.8
						C203.13,343.99,203.83,346.22,203.69,346.27z"/>
				</g>
			</g>
			<g>
				<g>
					<path class="st6" d="M201.89,314.32c0.01-0.01,0.16,0.08,0.45,0.25c0.32,0.19,0.74,0.45,1.28,0.79
						c1.14,0.72,2.77,1.74,4.83,3.04c4.18,2.67,10.1,6.45,17.24,11.01l0.1,0.06l0,0.12c0.25,9.53,0.56,20.95,0.88,33.2
						c0.42,16.95,0.77,32.29,0.97,43.4c0.08,5.53,0.15,10.01,0.2,13.15c0,1.53,0,2.72,0,3.58c-0.01,0.39-0.02,0.69-0.03,0.93
						c-0.01,0.21-0.02,0.32-0.03,0.32c-0.01,0-0.02-0.11-0.03-0.32c-0.01-0.24-0.01-0.54-0.03-0.93c-0.02-0.85-0.06-2.05-0.1-3.57
						c-0.09-3.14-0.21-7.62-0.36-13.15c-0.29-11.13-0.69-26.46-1.13-43.4c-0.3-12.25-0.57-23.67-0.8-33.2l0.1,0.18
						c-7.09-4.62-12.98-8.46-17.14-11.16c-2.03-1.34-3.64-2.4-4.76-3.14c-0.52-0.35-0.94-0.63-1.24-0.84
						C202.03,314.44,201.88,314.33,201.89,314.32z"/>
				</g>
			</g>
			<g>
				<g>
					<path class="st6" d="M175.37,332.17c0.08-0.04,0.83,0.77,1.71,1.86c0.88,1.08,1.51,2.03,1.4,2.12
						c-0.11,0.09-0.93-0.7-1.81-1.79C175.8,333.28,175.2,332.26,175.37,332.17z"/>
				</g>
			</g>
			<g>
				<g>
					<path class="st6" d="M175.37,332.17c-0.14,0.01-0.46-3.19-0.7-7.14c-0.24-3.95-0.32-7.16-0.18-7.17
						c0.14-0.01,0.46,3.19,0.7,7.14C175.44,328.95,175.52,332.16,175.37,332.17z"/>
				</g>
			</g>
			<g>
				<g>
					<g>
						<path class="st6" d="M141.22,340.13c0.03,0.14-0.26,0.33-0.67,0.43c-0.4,0.1-0.76,0.06-0.79-0.08
							c-0.03-0.14,0.26-0.33,0.67-0.43C140.83,339.95,141.19,339.99,141.22,340.13z"/>
					</g>
				</g>
				<g>
					<g>
						<path class="st6" d="M147.06,338.7c0.03,0.14-0.59,0.41-1.4,0.61c-0.81,0.2-1.49,0.24-1.52,0.1c-0.03-0.14,0.59-0.41,1.4-0.61
							C146.34,338.61,147.03,338.56,147.06,338.7z"/>
					</g>
				</g>
				<g>
					<g>
						<path class="st6" d="M152.9,337.28c0.03,0.14-0.59,0.41-1.4,0.61c-0.81,0.2-1.49,0.24-1.52,0.1c-0.03-0.14,0.59-0.41,1.4-0.61
							C152.18,337.19,152.86,337.14,152.9,337.28z"/>
					</g>
				</g>
				<g>
					<g>
						<path class="st6" d="M158.73,335.86c0.03,0.14-0.59,0.41-1.4,0.61c-0.81,0.2-1.49,0.24-1.52,0.1
							c-0.03-0.14,0.59-0.41,1.4-0.61C158.02,335.76,158.7,335.72,158.73,335.86z"/>
					</g>
				</g>
				<g>
					<g>
						<path class="st6" d="M164.57,334.43c0.03,0.14-0.59,0.41-1.4,0.61c-0.81,0.2-1.49,0.24-1.52,0.1
							c-0.03-0.14,0.59-0.41,1.4-0.61C163.86,334.34,164.54,334.29,164.57,334.43z"/>
					</g>
				</g>
				<g>
					<g>
						<path class="st6" d="M170.41,333.01c0.03,0.14-0.59,0.41-1.4,0.61c-0.81,0.2-1.49,0.24-1.52,0.1
							c-0.03-0.14,0.59-0.41,1.4-0.61C169.69,332.92,170.37,332.87,170.41,333.01z"/>
					</g>
				</g>
				<g>
					<g>
						<path class="st6" d="M174.78,331.94c0.03,0.14-0.26,0.33-0.67,0.43c-0.4,0.1-0.76,0.06-0.79-0.08
							c-0.03-0.14,0.26-0.33,0.67-0.43C174.4,331.77,174.75,331.8,174.78,331.94z"/>
					</g>
				</g>
			</g>
			<g>
				<g>
					<g>
						<path class="st6" d="M177.18,332.31c-0.04,0.14-0.39,0.17-0.79,0.06c-0.4-0.1-0.69-0.3-0.66-0.44
							c0.04-0.14,0.39-0.17,0.79-0.06C176.92,331.97,177.21,332.17,177.18,332.31z"/>
					</g>
				</g>
				<g>
					<g>
						<path class="st6" d="M182.72,333.98c-0.05,0.14-0.7,0.05-1.46-0.19c-0.76-0.24-1.34-0.55-1.3-0.69
							c0.04-0.14,0.69-0.05,1.46,0.19C182.18,333.53,182.77,333.84,182.72,333.98z"/>
					</g>
				</g>
				<g>
					<g>
						<path class="st6" d="M188.16,335.97c-0.05,0.13-0.7,0.01-1.45-0.27c-0.74-0.28-1.31-0.63-1.26-0.76
							c0.05-0.14,0.7-0.01,1.45,0.27C187.65,335.49,188.21,335.83,188.16,335.97z"/>
					</g>
				</g>
				<g>
					<g>
						<path class="st6" d="M193.48,338.27c-0.06,0.13-0.7-0.03-1.43-0.36c-0.73-0.33-1.27-0.7-1.21-0.83
							c0.06-0.13,0.7,0.03,1.43,0.36C192.99,337.77,193.54,338.14,193.48,338.27z"/>
					</g>
				</g>
				<g>
					<g>
						<path class="st6" d="M198.65,340.88c-0.07,0.13-0.7-0.07-1.4-0.44c-0.71-0.37-1.23-0.77-1.16-0.9
							c0.06-0.13,0.69,0.07,1.4,0.44C198.2,340.35,198.72,340.75,198.65,340.88z"/>
					</g>
				</g>
				<g>
					<g>
						<path class="st6" d="M202.47,343.06c-0.07,0.12-0.42,0.05-0.78-0.16c-0.36-0.21-0.59-0.48-0.51-0.61
							c0.07-0.12,0.42-0.05,0.78,0.16C202.31,342.66,202.54,342.93,202.47,343.06z"/>
					</g>
				</g>
			</g>
		</g>
		<g>
			<g>
				<path class="st7" d="M173.42,214.91c0,0-6.9,31.94-1.59,45.21c5.31,13.27,25.83,40.26,25.83,40.26l15.63-0.92
					c0,0-5.64-82.46-6.97-84.12c-1.33-1.66-31.73-10.41-31.73-10.41L173.42,214.91z"/>
			</g>
			<g>
				<path class="st7" d="M193.96,317.7c0,0,36.34-13.08,39.31-20.48c7.15-17.8-18.7-78.36-26.95-81.89
					c-8.25-3.53-12.97,15.67-11.61,21.23c5.2,21.17,15.46,43.12,15.46,43.12l-24.47,15.83L193.96,317.7z"/>
			</g>
			<g>
				<path class="st7" d="M152.93,237.56c-1.55-6.4-4.17-24.82-4.17-24.82l-18.6,9.73c-3.3,2.47-10.87,11.08-10.87,20.89
					c0,17.7,2.51,58.04,5.75,63.48c4,6.69,20.91,16.97,20.91,16.97l11.94-18.36c0,0-4.87-3.84-4.87-3.84
					c2.92-5.77,9.41-18.89,10.18-23.24C164.2,272.72,154.19,242.77,152.93,237.56z"/>
			</g>
			<g>
				<g>
					<path class="st2" d="M194.4,241.75c0.02-0.01,0.12,0.22,0.31,0.65c0.2,0.48,0.47,1.11,0.81,1.9c0.7,1.71,1.68,4.1,2.88,7.02
						c2.4,5.99,5.69,14.18,9.31,23.23c0.9,2.28,1.79,4.51,2.64,6.66l0.08,0.21l-0.19,0.11c-6.95,4.01-13.05,7.53-17.47,10.07
						c-2.16,1.22-3.9,2.21-5.16,2.92c-0.57,0.31-1.04,0.57-1.4,0.76c-0.32,0.17-0.49,0.25-0.5,0.24c-0.01-0.01,0.15-0.12,0.45-0.32
						c0.35-0.22,0.8-0.49,1.35-0.84c1.24-0.74,2.96-1.78,5.08-3.05c4.4-2.59,10.46-6.16,17.38-10.23l-0.11,0.31
						c-0.86-2.15-1.74-4.37-2.65-6.65c-3.57-9.07-6.8-17.28-9.17-23.29c-1.13-2.95-2.06-5.35-2.72-7.08
						c-0.3-0.8-0.53-1.44-0.72-1.93C194.46,241.99,194.38,241.75,194.4,241.75z"/>
				</g>
			</g>
			<g>
				<g>
					<path class="st2" d="M220.34,287.31c-0.06,0.04-0.53-0.52-1.28-1.42c-0.76-0.89-1.8-2.14-3.23-3.16
						c-1.43-1.02-3-1.47-4.14-1.51c-1.15-0.06-1.84,0.21-1.87,0.12c-0.03-0.04,0.65-0.45,1.87-0.49c1.21-0.05,2.92,0.38,4.44,1.46
						c1.51,1.08,2.53,2.4,3.22,3.36C220.03,286.64,220.4,287.27,220.34,287.31z"/>
				</g>
			</g>
			<g>
				<g>
					<path class="st2" d="M205.2,215.01c0.04,0.1-1.25,0.41-2.97,1.58c-1.72,1.14-3.75,3.25-5.21,6.06
						c-1.46,2.81-2.22,5.62-2.77,7.63c-0.53,2.02-0.86,3.28-0.93,3.26c-0.04-0.01,0-0.33,0.1-0.91c0.1-0.58,0.25-1.41,0.48-2.44
						c0.46-2.04,1.17-4.9,2.66-7.78c1.5-2.88,3.65-5.03,5.47-6.12c0.91-0.56,1.7-0.9,2.27-1.07
						C204.87,215.04,205.19,214.98,205.2,215.01z"/>
				</g>
			</g>
			<g>
				<g>
					<path class="st2" d="M144.12,290.92c-0.02,0.01-0.08-0.15-0.18-0.44c-0.12-0.35-0.26-0.78-0.43-1.29
						c-0.37-1.2-0.87-2.81-1.47-4.76c-1.22-4.03-2.88-9.6-4.67-15.77c-1.8-6.17-3.4-11.76-4.53-15.81
						c-0.54-1.97-0.98-3.59-1.32-4.81c-0.13-0.52-0.24-0.96-0.33-1.32c-0.07-0.3-0.1-0.46-0.08-0.47c0.02-0.01,0.08,0.15,0.18,0.44
						c0.12,0.35,0.26,0.78,0.43,1.29c0.37,1.2,0.87,2.81,1.47,4.76c1.22,4.03,2.88,9.6,4.68,15.77c1.8,6.17,3.4,11.76,4.53,15.81
						c0.54,1.97,0.98,3.59,1.32,4.81c0.13,0.52,0.24,0.96,0.33,1.31C144.11,290.76,144.13,290.92,144.12,290.92z"/>
				</g>
			</g>
			<g>
				<g>
					<path class="st2" d="M144.22,215.11c0.02,0,0.06,0.25,0.12,0.72c0.06,0.52,0.14,1.21,0.23,2.07c0.19,1.86,0.45,4.45,0.76,7.63
						c0.61,6.5,1.44,15.39,2.35,25.2c0.18,1.74,0.36,3.44,0.53,5.11l-0.13-0.19c1.96,1.13,3.86,2.22,5.66,3.26l0.28,0.16l-0.23,0.23
						c-1.16,1.16-2.27,2.28-3.33,3.34l0.05-0.26c0.61,1.3,1.22,2.55,1.88,3.68c0.68,1.11,1.41,2.13,2.13,3.07
						c1.43,1.87,2.82,3.39,3.97,4.64c1.14,1.2,2.06,2.16,2.73,2.87c0.29,0.31,0.53,0.56,0.72,0.76c0.16,0.18,0.24,0.27,0.23,0.28
						c-0.01,0.01-0.1-0.07-0.28-0.23c-0.2-0.19-0.46-0.42-0.77-0.71c-0.66-0.63-1.63-1.56-2.82-2.78c-1.19-1.22-2.61-2.73-4.08-4.6
						c-0.73-0.93-1.48-1.95-2.19-3.08c-0.68-1.15-1.3-2.39-1.93-3.7l-0.07-0.14l0.11-0.12c1.05-1.07,2.16-2.19,3.31-3.36l0.05,0.39
						c-1.81-1.04-3.71-2.12-5.68-3.24l-0.11-0.07l-0.01-0.13c-0.18-1.67-0.36-3.38-0.54-5.12c-0.93-9.84-1.66-18.76-2.2-25.22
						c-0.25-3.19-0.45-5.78-0.6-7.65c-0.06-0.86-0.1-1.55-0.14-2.08C144.2,215.36,144.2,215.11,144.22,215.11z"/>
				</g>
			</g>
			<g>
				<g>
					<g>
						<g>
							<polygon class="st6" points="161.98,301.76 152.85,289.62 131.07,292.87 130.57,294.28 153.59,322.19 173.31,318.38 							
								"/>
						</g>
						<g>
							<polygon class="st6" points="161.49,303.17 152.35,291.03 130.57,294.28 153.09,323.6 172.16,319.67 173.31,318.38 							
								"/>
						</g>
						<g>
							<path class="st3" d="M143.37,298.18c0.53,0.31,1.21,0.13,1.51-0.4c0.31-0.53,0.13-1.2-0.4-1.51
								c-0.53-0.31-1.21-0.13-1.51,0.4C142.67,297.2,142.85,297.87,143.37,298.18z"/>
						</g>
					</g>
					<g>
						<path class="st4" d="M186.82,298.48l-8.2,2.26c-2.69-2.48-6.35-3.6-9.97-3.06l-3.01,0.45l-1.71,2.62
							c0,0-14.63,2.84-14.91,4.74l0.07,0.59l0.04,0.34l12.73-1.03c0,0-10.72,1.57-11.36,1.69c-0.7,0.13-3.02,0.27-2.78,1.52
							c0.19,1.03,1.54,1.66,3.43,1.66c0.78,0,10.18-0.58,10.18-0.58s-9.76,1.36-10.23,1.43c-1.15,0.17-0.73,1.98-0.01,2.11
							c0.57,0.1,14.22,1.97,14.22,1.97s-1.98,1.8-3.8,1.94c-1.82,0.14-5.24-1.71-5.72-0.52c-0.48,1.19-0.25,1.81,0.17,2.01
							c0.42,0.2,4.98,1.75,6.45,1.92c1.47,0.17,15.39-3.54,15.39-3.54l14.81-2.64L186.82,298.48z"/>
					</g>
					<g>
						<g>
							<path class="st4" d="M134.18,298.98c0,0-1.96,1.13-0.36,3.89c2.34,4.03,5.71,6.63,5.71,6.63s-0.18,1.57,1.3,2.49
								c0,0-1.55,0.64-0.14,3.22c0,0-0.69,2.99,2.52,3.75c0,0-0.46,2.44,2.63,3.11c3.09,0.67,5.63-1.67,5.63-1.67L134.18,298.98z"/>
						</g>
						<g>
							<path class="st4" d="M140.62,309.11c2.15,0.25,4.49,0.36,6.52,0.8c0.67,0.15,1.29,0.06,1.79,0.53
								c0.5,0.47,0.72,1.29,0.31,1.84c-0.36,0.48-1.03,0.57-1.63,0.59c-2.25,0.06-4.48-0.38-6.68-0.82"/>
						</g>
						<g>
							<path class="st4" d="M141.96,312.44c2.15,0.25,4.49,0.36,6.52,0.8c0.67,0.15,1.29,0.06,1.79,0.53
								c0.5,0.47,0.72,1.29,0.31,1.84c-0.36,0.48-1.03,0.57-1.63,0.59c-2.25,0.06-4.48-0.38-6.68-0.82"/>
						</g>
						<g>
							<path class="st4" d="M143.67,315.82c2.15,0.25,4.49,0.36,6.52,0.8c0.67,0.15,1.29,0.06,1.79,0.53
								c0.5,0.47,0.72,1.29,0.31,1.84c-0.36,0.48-1.03,0.57-1.63,0.59c-2.25,0.06-4.48-0.38-6.68-0.82"/>
						</g>
						<g>
							<g>
								<path class="st5" d="M141.06,312.1c0.02-0.09,1.56,0.2,3.47,0.44c1.91,0.24,3.47,0.33,3.47,0.43c0,0.09-1.58,0.14-3.51-0.1
									C142.56,312.62,141.04,312.18,141.06,312.1z"/>
							</g>
						</g>
						<g>
							<g>
								<path class="st5" d="M141.13,315.21c0.02-0.09,1.78,0.21,3.95,0.51c2.17,0.3,3.95,0.48,3.94,0.58c0,0.09-1.8,0.05-3.99-0.25
									C142.85,315.74,141.11,315.29,141.13,315.21z"/>
							</g>
						</g>
						<g>
							<g>
								<path class="st5" d="M143.07,318.92c0.01-0.09,1.65,0,3.66,0.19c2.02,0.2,3.64,0.43,3.63,0.52c-0.01,0.09-1.65,0-3.67-0.19
									C144.69,319.25,143.06,319.01,143.07,318.92z"/>
							</g>
						</g>
						<g>
							<g>
								<path class="st4" d="M138.84,308.94c0.02-0.09,1.95,0.25,4.34,0.5c2.4,0.26,4.35,0.32,4.35,0.41c0,0.04-0.49,0.08-1.29,0.08
									c-0.79,0-1.89-0.05-3.1-0.17c-1.21-0.13-2.29-0.31-3.07-0.48C139.3,309.13,138.83,308.99,138.84,308.94z"/>
							</g>
						</g>
					</g>
					<g>
						<g>
							<path class="st5" d="M158.94,301.66c-0.01-0.09,2.29-0.52,5.14-0.96c2.85-0.44,5.18-0.73,5.19-0.64
								c0.01,0.09-2.29,0.52-5.14,0.96C161.28,301.47,158.96,301.75,158.94,301.66z"/>
						</g>
					</g>
				</g>
				<g>
					<g>
						<path class="st2" d="M159.75,300.86c0,0-0.21-0.24-0.56-0.71c-0.41-0.55-0.91-1.22-1.51-2.03c-1.34-1.83-3.12-4.25-5.17-7.03
							l0.09,0.04c-1.56,0.23-3.25,0.48-4.99,0.74c-4.65,0.68-8.86,1.29-12.04,1.75c-1.46,0.2-2.69,0.37-3.65,0.51
							c-0.38,0.05-0.71,0.09-0.99,0.13c-0.23,0.03-0.35,0.04-0.35,0.03c0-0.01,0.12-0.03,0.34-0.07c0.29-0.05,0.61-0.1,0.99-0.17
							c0.96-0.15,2.18-0.34,3.64-0.57c3.18-0.48,7.39-1.11,12.03-1.81c1.75-0.26,3.43-0.5,4.99-0.73l0.06-0.01l0.04,0.05
							c2.02,2.8,3.78,5.24,5.11,7.08c0.58,0.82,1.07,1.5,1.46,2.06C159.58,300.59,159.75,300.86,159.75,300.86z"/>
					</g>
				</g>
			</g>
			<g class="st11">
				<g>
					<path d="M191.38,291.96c0.47-2.42,2.1-3.83,4.37-4.78c2.27-0.95,4.8-1.82,6.12-3.9c1.66-2.62,0.72-6.02-0.03-9.03
						c-1.48-5.91-5.16-20.56-4.76-26.64l13.03,33.69L191.38,291.96z"/>
				</g>
			</g>
			<g class="st11">
				<g>
					<path d="M186.72,285.28c0.84-0.88,1.15-2.15,1.12-3.37c-0.03-1.21-0.37-2.4-0.67-3.57c-1.14-4.47-1.39-9.1-1.83-13.69
						c-0.36-3.72-0.81-6.84-0.78-6.59c0,0-2.96-1.55-4.79-2.52c0.95-0.32,2.64-1.96,2.64-1.96s-1-3.25-1.19-4.24
						c0,0-2.18-10.98-2.76-14.51l0.26,15.5l-4.12,6.42l6.62,2.34l4.35,24.41L186.72,285.28z"/>
				</g>
			</g>
			<g>
				<g>
					<path class="st2" d="M185.71,283.73c-0.01,0-0.07-0.15-0.18-0.44c-0.1-0.3-0.28-0.73-0.44-1.31c-0.36-1.16-0.78-2.89-1.11-5.11
						c-0.34-2.22-0.54-4.92-0.95-7.96c-0.21-1.52-0.49-3.12-0.91-4.77c-0.21-0.83-0.47-1.66-0.76-2.5
						c-0.27-0.86-0.55-1.74-0.83-2.63l0.06,0.1c-0.32-0.25-0.86-0.46-1.34-0.64c-0.49-0.19-1.01-0.36-1.52-0.52
						c-1.04-0.33-2.11-0.64-3.19-0.93l-0.33-0.09l0.19-0.29c1.32-2.07,2.7-4.22,4.11-6.43l-0.04,0.12c0.05-0.84,0.1-1.75,0.16-2.66
						c0.16-5.81-0.34-11.35-0.62-16.39c-0.32-5.04-0.41-9.61-0.12-13.44c0.3-3.82,0.93-6.88,1.64-8.91
						c0.14-0.52,0.31-0.96,0.48-1.34c0.16-0.37,0.29-0.69,0.4-0.96c0.22-0.52,0.35-0.79,0.36-0.78s-0.08,0.29-0.27,0.82
						c-0.1,0.28-0.22,0.6-0.36,0.97c-0.15,0.38-0.31,0.83-0.43,1.35c-0.64,2.03-1.22,5.08-1.46,8.87c-0.25,3.8-0.12,8.35,0.23,13.38
						c0.31,5.04,0.82,10.58,0.67,16.44c-0.05,0.92-0.11,1.83-0.16,2.68l0,0.06l-0.04,0.06c-1.42,2.2-2.8,4.35-4.12,6.42l-0.15-0.38
						c1.1,0.3,2.17,0.62,3.21,0.95c0.52,0.17,1.04,0.34,1.55,0.54c0.51,0.21,1,0.36,1.5,0.76l0.04,0.03l0.02,0.07
						c0.28,0.89,0.55,1.76,0.81,2.61c0.28,0.86,0.54,1.7,0.75,2.54c0.42,1.68,0.68,3.3,0.88,4.83c0.38,3.07,0.54,5.76,0.84,7.97
						c0.29,2.21,0.66,3.94,0.97,5.1c0.14,0.59,0.29,1.03,0.37,1.33C185.69,283.56,185.73,283.72,185.71,283.73z"/>
				</g>
			</g>
			<g>
				<g>
					<path class="st2" d="M177.59,277.34c0.03,0,0.08,0.36,0.1,1.03c0.02,0.67-0.03,1.64-0.24,2.82c-0.39,2.35-1.56,5.58-4.01,8.35
						c-2.44,2.77-5.51,4.34-7.79,5.02c-1.15,0.35-2.1,0.52-2.76,0.59c-0.66,0.07-1.03,0.06-1.04,0.03c-0.01-0.1,1.47-0.2,3.68-0.97
						c2.2-0.75,5.15-2.33,7.51-5.01c2.37-2.68,3.56-5.8,4.04-8.08C177.57,278.81,177.49,277.33,177.59,277.34z"/>
				</g>
			</g>
		</g>
	</g>
</g>
<g id="Speech_Bubble">
</g>
</svg>
