<svg width="402" height="76" viewBox="0 0 402 76" fill="none" xmlns="http://www.w3.org/2000/svg">
<path d="M82.3105 75H72.9355V3.90625H82.3105V75ZM151.793 52.4414C150.914 59.9609 148.131 65.7715 143.443 69.873C138.788 73.9421 132.587 75.9766 124.84 75.9766C116.441 75.9766 109.703 72.9655 104.625 66.9434C99.5794 60.9212 97.0566 52.8646 97.0566 42.7734V35.9375C97.0566 29.3294 98.2285 23.5189 100.572 18.5059C102.949 13.4928 106.301 9.65169 110.631 6.98242C114.96 4.2806 119.973 2.92969 125.67 2.92969C133.222 2.92969 139.277 5.04557 143.834 9.27734C148.391 13.4766 151.044 19.3034 151.793 26.7578H142.369C141.555 21.0938 139.781 16.9922 137.047 14.4531C134.345 11.9141 130.553 10.6445 125.67 10.6445C119.68 10.6445 114.977 12.8581 111.559 17.2852C108.173 21.7122 106.48 28.0111 106.48 36.1816V43.0664C106.48 50.7812 108.092 56.9173 111.314 61.4746C114.537 66.0319 119.046 68.3105 124.84 68.3105C130.048 68.3105 134.036 67.1387 136.803 64.7949C139.602 62.4186 141.458 58.3008 142.369 52.4414H151.793ZM172.252 28.5645C176.256 23.6491 181.464 21.1914 187.877 21.1914C199.042 21.1914 204.674 27.4902 204.771 40.0879V75H195.738V40.0391C195.706 36.2305 194.827 33.4147 193.102 31.5918C191.409 29.7689 188.756 28.8574 185.143 28.8574C182.213 28.8574 179.641 29.6387 177.428 31.2012C175.214 32.7637 173.489 34.8145 172.252 37.3535V75H163.219V0H172.252V28.5645ZM250.914 75C250.393 73.9583 249.97 72.1029 249.645 69.4336C245.445 73.7956 240.432 75.9766 234.605 75.9766C229.397 75.9766 225.117 74.5117 221.764 71.582C218.443 68.6198 216.783 64.8763 216.783 60.3516C216.783 54.8503 218.867 50.5859 223.033 47.5586C227.232 44.4987 233.124 42.9688 240.709 42.9688H249.498V38.8184C249.498 35.6608 248.554 33.1543 246.666 31.2988C244.778 29.4108 241.995 28.4668 238.316 28.4668C235.094 28.4668 232.392 29.2806 230.211 30.9082C228.03 32.5358 226.939 34.5052 226.939 36.8164H217.857C217.857 34.1797 218.785 31.6406 220.641 29.1992C222.529 26.7253 225.068 24.7721 228.258 23.3398C231.48 21.9076 235.012 21.1914 238.854 21.1914C244.941 21.1914 249.71 22.7214 253.16 25.7812C256.611 28.8086 258.401 32.9915 258.531 38.3301V62.6465C258.531 67.4967 259.15 71.3542 260.387 74.2188V75H250.914ZM235.924 68.1152C238.756 68.1152 241.441 67.3828 243.98 65.918C246.52 64.4531 248.359 62.5488 249.498 60.2051V49.3652H242.418C231.35 49.3652 225.816 52.6042 225.816 59.082C225.816 61.9141 226.76 64.1276 228.648 65.7227C230.536 67.3177 232.962 68.1152 235.924 68.1152ZM284.947 9.375V22.168H294.811V29.1504H284.947V61.9141C284.947 64.0299 285.387 65.625 286.266 66.6992C287.145 67.7409 288.642 68.2617 290.758 68.2617C291.799 68.2617 293.232 68.0664 295.055 67.6758V75C292.678 75.651 290.367 75.9766 288.121 75.9766C284.085 75.9766 281.041 74.7559 278.99 72.3145C276.939 69.873 275.914 66.4062 275.914 61.9141V29.1504H266.295V22.168H275.914V9.375H284.947ZM305.602 70.2637C305.602 68.7012 306.057 67.3991 306.969 66.3574C307.913 65.3158 309.312 64.7949 311.168 64.7949C313.023 64.7949 314.423 65.3158 315.367 66.3574C316.344 67.3991 316.832 68.7012 316.832 70.2637C316.832 71.7611 316.344 73.0143 315.367 74.0234C314.423 75.0326 313.023 75.5371 311.168 75.5371C309.312 75.5371 307.913 75.0326 306.969 74.0234C306.057 73.0143 305.602 71.7611 305.602 70.2637ZM341.588 75H332.555V22.168H341.588V75ZM331.822 8.1543C331.822 6.68945 332.262 5.45247 333.141 4.44336C334.052 3.43424 335.387 2.92969 337.145 2.92969C338.902 2.92969 340.237 3.43424 341.148 4.44336C342.06 5.45247 342.516 6.68945 342.516 8.1543C342.516 9.61914 342.06 10.8398 341.148 11.8164C340.237 12.793 338.902 13.2812 337.145 13.2812C335.387 13.2812 334.052 12.793 333.141 11.8164C332.262 10.8398 331.822 9.61914 331.822 8.1543ZM353.697 48.0957C353.697 42.9199 354.706 38.265 356.725 34.1309C358.775 29.9967 361.607 26.8066 365.221 24.5605C368.867 22.3145 373.017 21.1914 377.672 21.1914C384.866 21.1914 390.676 23.6816 395.104 28.6621C399.563 33.6426 401.793 40.2669 401.793 48.5352V49.1699C401.793 54.3132 400.8 58.9355 398.814 63.0371C396.861 67.1061 394.046 70.2799 390.367 72.5586C386.721 74.8372 382.522 75.9766 377.77 75.9766C370.608 75.9766 364.798 73.4863 360.338 68.5059C355.911 63.5254 353.697 56.9336 353.697 48.7305V48.0957ZM362.779 49.1699C362.779 55.0293 364.13 59.7331 366.832 63.2812C369.566 66.8294 373.212 68.6035 377.77 68.6035C382.359 68.6035 386.005 66.8132 388.707 63.2324C391.409 59.6191 392.76 54.5736 392.76 48.0957C392.76 42.3014 391.376 37.6139 388.609 34.0332C385.875 30.4199 382.229 28.6133 377.672 28.6133C373.212 28.6133 369.615 30.3874 366.881 33.9355C364.146 37.4837 362.779 42.5618 362.779 49.1699Z" fill="white"/>
<rect y="10" width="59" height="34" fill="white"/>
<circle cx="10" cy="27" r="4" fill="#C4C4C4"/>
<circle cx="48" cy="27" r="4" fill="#C4C4C4"/>
<circle cx="28" cy="27" r="4" fill="#C4C4C4"/>
<line x1="28.3778" y1="43.6725" x2="41.3778" y2="58.6725" stroke="black"/>
<line x1="33.3778" y1="43.6725" x2="46.3778" y2="58.6725" stroke="black"/>
<line x1="41" y1="58.5" x2="46" y2="58.5" stroke="black"/>
</svg>

